<svg width="120" height="24" viewBox="0 0 120 24" fill="none" xmlns="http://www.w3.org/2000/svg">
<path d="M23.0356 2.49989V23.4999H19.3478V7.02073H19.2986L12.7097 23.4999H10.2512L3.51482 7.02073H3.46565V23.4999H0.072876V2.49989H5.3833L11.4805 18.0554H11.5788L18.0201 2.49989H23.0356ZM26.0841 4.10406C26.0841 3.52073 26.2808 3.03461 26.7233 2.64572C27.1659 2.25684 27.6576 2.06239 28.2476 2.06239C28.8869 2.06239 29.4277 2.25684 29.8211 2.64572C30.2145 3.03461 30.4603 3.52073 30.4603 4.10406C30.4603 4.68739 30.2636 5.1735 29.8211 5.56239C29.3786 5.95128 28.8869 6.14572 28.2476 6.14572C27.6084 6.14572 27.1167 5.95128 26.7233 5.56239C26.33 5.12489 26.0841 4.63878 26.0841 4.10406ZM30.0669 8.43045V23.4999H26.4775V8.43045H30.0669ZM40.9337 20.9235C41.4745 20.9235 42.0646 20.8263 42.7038 20.5346C43.343 20.2916 43.9331 19.9513 44.4739 19.5624V22.8679C43.8839 23.2082 43.2447 23.4513 42.5071 23.5971C41.7696 23.7429 40.9828 23.8402 40.0978 23.8402C37.8359 23.8402 36.0166 23.1596 34.6398 21.7499C33.2139 20.3402 32.5255 18.5416 32.5255 16.4027C32.5255 13.9721 33.263 11.9791 34.689 10.4235C36.1149 8.86795 38.1309 8.09017 40.7861 8.09017C41.4745 8.09017 42.1629 8.18739 42.8021 8.33323C43.4905 8.47906 44.0314 8.72212 44.4248 8.91656V12.3193C43.8839 11.9304 43.2938 11.5902 42.753 11.3957C42.1629 11.2013 41.5729 11.0554 40.9828 11.0554C39.5569 11.0554 38.426 11.4929 37.5409 12.4166C36.6558 13.3402 36.2625 14.5554 36.2625 16.111C36.2625 17.6179 36.705 18.8332 37.5409 19.6596C38.3768 20.486 39.5077 20.9235 40.9337 20.9235ZM54.6523 8.18739C54.9473 8.18739 55.1931 8.18739 55.439 8.236C55.6848 8.28461 55.8815 8.33323 56.029 8.38184V11.9791C55.8324 11.8332 55.5865 11.6874 55.1931 11.5902C54.7998 11.4929 54.4064 11.3957 53.8655 11.3957C52.9805 11.3957 52.2429 11.7846 51.6529 12.5138C51.0628 13.2429 50.7186 14.361 50.7186 15.9166V23.4999H47.1292V8.43045H50.7186V10.8124H50.7678C51.112 9.986 51.6037 9.35406 52.2429 8.86795C52.9313 8.43045 53.718 8.18739 54.6523 8.18739ZM56.2257 16.2082C56.2257 13.7291 56.9633 11.736 58.3401 10.2777C59.766 8.81934 61.7328 8.09017 64.2405 8.09017C66.6007 8.09017 68.4692 8.77073 69.7968 10.1804C71.1244 11.5902 71.8128 13.486 71.8128 15.8679C71.8128 18.2985 71.0752 20.2429 69.6985 21.7013C68.2725 23.1596 66.3549 23.8888 63.8963 23.8888C61.5361 23.8888 59.6677 23.2082 58.2909 21.8471C56.9141 20.4374 56.2257 18.5416 56.2257 16.2082ZM59.9627 16.0624C59.9627 17.6179 60.3069 18.8332 61.0444 19.6596C61.782 20.486 62.8146 20.9235 64.1422 20.9235C65.4206 20.9235 66.4532 20.5346 67.1416 19.6596C67.83 18.8332 68.1742 17.6179 68.1742 15.9652C68.1742 14.361 67.83 13.1457 67.1416 12.2707C66.4532 11.4443 65.4206 11.0068 64.1914 11.0068C62.8638 11.0068 61.8803 11.4443 61.1428 12.3193C60.3069 13.2429 59.9627 14.4582 59.9627 16.0624ZM77.1724 12.4166C77.1724 12.9027 77.3199 13.3402 77.6641 13.6318C78.0083 13.9235 78.6967 14.2638 79.8276 14.7013C81.2536 15.2846 82.2861 15.9166 82.827 16.5971C83.4171 17.3263 83.7121 18.1527 83.7121 19.1735C83.7121 20.5832 83.1712 21.7013 82.0403 22.5763C80.9585 23.4513 79.4342 23.8402 77.5658 23.8402C76.9265 23.8402 76.2382 23.7429 75.4514 23.5971C74.6647 23.4513 74.0255 23.2568 73.4846 23.0138V19.5138C74.1238 19.9513 74.8614 20.3402 75.5989 20.5832C76.3365 20.8263 77.0249 20.9721 77.6641 20.9721C78.4508 20.9721 79.0901 20.8749 79.4342 20.6318C79.8276 20.3888 80.0243 20.0485 80.0243 19.5138C80.0243 19.0277 79.8276 18.6388 79.4342 18.2499C79.0409 17.9096 78.2542 17.5207 77.1724 17.0832C75.8448 16.5485 74.9106 15.9166 74.3697 15.236C73.8288 14.5554 73.5338 13.6804 73.5338 12.611C73.5338 11.2499 74.0746 10.1318 75.1564 9.25684C76.2382 8.38184 77.6641 7.94434 79.3851 7.94434C79.926 7.94434 80.516 7.99295 81.1552 8.13878C81.7944 8.28461 82.3845 8.43045 82.827 8.57628V12.0277C82.3353 11.736 81.7944 11.4443 81.1552 11.2013C80.516 10.9582 79.8768 10.861 79.2867 10.861C78.5984 10.861 78.0575 11.0068 77.7133 11.2499C77.3691 11.5902 77.1724 11.9304 77.1724 12.4166ZM85.2364 16.2082C85.2364 13.7291 85.9739 11.736 87.3507 10.2777C88.7767 8.81934 90.7435 8.09017 93.2512 8.09017C95.6114 8.09017 97.4799 8.77073 98.8075 10.1804C100.135 11.5902 100.823 13.486 100.823 15.8679C100.823 18.2985 100.086 20.2429 98.7091 21.7013C97.2832 23.1596 95.3655 23.8888 92.907 23.8888C90.5468 23.8888 88.6783 23.2082 87.3016 21.8471C85.9739 20.4374 85.2364 18.5416 85.2364 16.2082ZM88.9733 16.0624C88.9733 17.6179 89.3175 18.8332 90.0551 19.6596C90.7927 20.486 91.8252 20.9235 93.1528 20.9235C94.4313 20.9235 95.4639 20.5346 96.1523 19.6596C96.8406 18.8332 97.1848 17.6179 97.1848 15.9652C97.1848 14.361 96.8406 13.1457 96.1523 12.2707C95.4639 11.4443 94.4313 11.0068 93.202 11.0068C91.8744 11.0068 90.891 11.4443 90.1534 12.3193C89.3667 13.2429 88.9733 14.4582 88.9733 16.0624ZM112.772 11.3471H107.412V23.4999H103.774V11.3471H101.217V8.43045H103.774V6.34017C103.774 4.78461 104.315 3.47211 105.347 2.45128C106.38 1.43045 107.707 0.944336 109.33 0.944336C109.773 0.944336 110.166 0.992947 110.51 0.992947C110.854 0.992947 111.149 1.09017 111.395 1.18739V4.24989C111.297 4.20128 111.051 4.10406 110.756 4.00684C110.461 3.90961 110.117 3.861 109.723 3.861C108.986 3.861 108.396 4.10406 108.002 4.54156C107.609 4.97906 107.412 5.70822 107.412 6.58322V8.38184H112.772V4.97906L116.361 3.90961V8.38184H120V11.2985H116.361V18.3471C116.361 19.2707 116.558 19.9027 116.853 20.2916C117.197 20.6804 117.738 20.8749 118.476 20.8749C118.672 20.8749 118.918 20.8263 119.213 20.7291C119.508 20.6318 119.754 20.5346 119.951 20.3888V23.3054C119.705 23.4513 119.361 23.5485 118.82 23.6457C118.279 23.7429 117.787 23.7916 117.246 23.7916C115.722 23.7916 114.591 23.4027 113.854 22.6249C113.116 21.8471 112.723 20.6318 112.723 19.0277L112.772 11.3471Z" fill="black"/>
</svg>
