<svg width="150" height="100" viewBox="0 0 150 100" fill="none" xmlns="http://www.w3.org/2000/svg">
<mask id="mask0_18_381" style="mask-type:alpha" maskUnits="userSpaceOnUse" x="11" y="35" width="129" height="41">
<g clip-path="url(#clip0_18_381)">
<path d="M91.011 66.6994C83.5235 72.3692 72.6709 75.3942 63.327 75.3942C50.2254 75.3942 38.4305 70.4159 29.5073 62.136C28.8062 61.4849 29.4344 60.5975 30.2757 61.1046C39.9056 66.8607 51.8126 70.3237 64.1122 70.3237C72.4073 70.3237 81.5325 68.5605 89.9229 64.9017C91.1904 64.3485 92.2505 65.7545 91.011 66.6994Z" fill="#FF9900"/>
<path d="M94.124 63.0406C93.1705 61.7845 87.7975 62.4471 85.3858 62.741C84.6511 62.8331 84.5389 62.1763 85.2007 61.7038C89.4801 58.6096 96.502 59.5027 97.3209 60.5399C98.1397 61.5828 97.1078 68.814 93.0864 72.2654C92.4695 72.7955 91.8806 72.5132 92.1554 71.8103C93.0584 69.494 95.0831 64.3024 94.124 63.0406Z" fill="#FF9900"/>
<path d="M85.5545 39.8603V36.8526C85.5545 36.3974 85.8911 36.092 86.2949 36.092H99.4021C99.8228 36.092 100.159 36.4031 100.159 36.8526V39.4281C100.154 39.8603 99.8003 40.425 99.1722 41.3181L92.3802 51.2805C94.904 51.2171 97.5681 51.6031 99.8564 52.9284C100.372 53.228 100.513 53.6659 100.552 54.0981V57.3075C100.552 57.7454 100.081 58.2582 99.5872 57.9931C95.5546 55.8209 90.1984 55.5846 85.7396 58.0162C85.2853 58.2697 84.8086 57.7627 84.8086 57.3247V54.2767C84.8086 53.7869 84.8142 52.9514 85.2909 52.2081L93.1598 40.6151H86.3117C85.8911 40.6151 85.5545 40.3097 85.5545 39.8603Z" fill="#221F1F"/>
<path d="M37.741 58.6269H33.7533C33.3719 58.5981 33.0691 58.3043 33.041 57.9297V36.9044C33.041 36.4838 33.3831 36.1496 33.8094 36.1496H37.5279C37.9149 36.1669 38.2233 36.4723 38.2514 36.8526V39.601H38.3243C39.2946 36.9447 41.1174 35.7059 43.5739 35.7059C46.0697 35.7059 47.6289 36.9447 48.7506 39.601C49.7153 36.9447 51.9083 35.7059 54.2583 35.7059C55.9296 35.7059 57.758 36.4147 58.8741 38.0049C60.1361 39.7739 59.8781 42.3437 59.8781 44.5966L59.8725 57.8664C59.8725 58.287 59.5303 58.6269 59.1041 58.6269H55.122C54.7238 58.5981 54.4041 58.2697 54.4041 57.8664V46.7228C54.4041 45.8354 54.4826 43.6228 54.2919 42.7816C53.9947 41.3699 53.1029 40.9723 51.9475 40.9723C50.9829 40.9723 49.9733 41.635 49.5639 42.6952C49.1545 43.7554 49.1937 45.53 49.1937 46.7228V57.8664C49.1937 58.287 48.8516 58.6269 48.4253 58.6269H44.4433C44.0394 58.5981 43.7254 58.2697 43.7254 57.8664L43.7198 46.7228C43.7198 44.3777 44.0955 40.9263 41.2632 40.9263C38.3972 40.9263 38.5094 44.2912 38.5094 46.7228V57.8664C38.5094 58.287 38.1673 58.6269 37.741 58.6269Z" fill="#221F1F"/>
<path d="M111.443 35.7059C117.361 35.7059 120.563 40.9263 120.563 47.564C120.563 53.9771 117.024 59.0648 111.443 59.0648C105.633 59.0648 102.47 53.8445 102.47 47.3393C102.47 40.7937 105.672 35.7059 111.443 35.7059ZM111.477 39.9986C108.538 39.9986 108.353 44.1126 108.353 46.6767C108.353 49.2465 108.314 54.7319 111.443 54.7319C114.534 54.7319 114.68 50.3067 114.68 47.6101C114.68 45.8354 114.607 43.715 114.085 42.0325C113.636 40.569 112.745 39.9986 111.477 39.9986Z" fill="#221F1F"/>
<path d="M128.235 58.6269H124.265C123.866 58.5981 123.547 58.2697 123.547 57.8664L123.541 36.8353C123.575 36.4492 123.906 36.1496 124.309 36.1496H128.005C128.353 36.1669 128.639 36.4089 128.718 36.7373V39.9525H128.791C129.907 37.0773 131.472 35.7059 134.225 35.7059C136.014 35.7059 137.759 36.3686 138.88 38.1836C139.924 39.8661 139.924 42.6952 139.924 44.7291V57.9643C139.879 58.3331 139.548 58.6269 139.155 58.6269H135.156C134.792 58.5981 134.489 58.3216 134.45 57.9643V46.5442C134.45 44.2451 134.708 40.8802 131.954 40.8802C130.984 40.8802 130.092 41.5485 129.649 42.5626C129.088 43.8476 129.015 45.1267 129.015 46.5442V57.8664C129.009 58.287 128.662 58.6269 128.235 58.6269Z" fill="#221F1F"/>
<path d="M75.1054 48.5839V47.6965C72.2226 47.6965 69.1772 48.3304 69.1772 51.8221C69.1772 53.591 70.0689 54.7895 71.6001 54.7895C72.7218 54.7895 73.7257 54.0808 74.3595 52.9284C75.1447 51.511 75.1054 50.1799 75.1054 48.5839ZM79.1268 58.5693C78.8632 58.8113 78.4818 58.8286 78.1845 58.6673C76.8609 57.5379 76.6254 57.0136 75.8962 55.9361C73.7089 58.2294 72.1609 58.915 69.323 58.915C65.9691 58.915 63.3555 56.7889 63.3555 52.5308C63.3555 49.2062 65.111 46.9417 67.6068 45.8354C69.7717 44.8559 72.7947 44.6831 75.1054 44.4122V43.8821C75.1054 42.9084 75.1784 41.756 74.6231 40.9147C74.1352 40.1599 73.2041 39.8488 72.3853 39.8488C70.8654 39.8488 69.5081 40.6497 69.1772 42.3091C69.1099 42.6779 68.8463 43.0409 68.4873 43.0582L64.6174 42.6318C64.2921 42.5569 63.9332 42.2861 64.0229 41.7733C64.9147 36.9563 69.1491 35.5043 72.9405 35.5043C74.8811 35.5043 77.4162 36.0344 78.9473 37.544C80.8879 39.4051 80.7028 41.8885 80.7028 44.5909V50.9751C80.7028 52.8938 81.4768 53.7351 82.2059 54.7722C82.4639 55.141 82.52 55.5846 82.1947 55.8612C81.3814 56.5584 79.9344 57.8549 79.138 58.5809L79.1268 58.5693Z" fill="#221F1F"/>
<path d="M22.8281 48.5839V47.6965C19.9453 47.6965 16.8998 48.3304 16.8998 51.8221C16.8998 53.591 17.7916 54.7895 19.3227 54.7895C20.4444 54.7895 21.4484 54.0808 22.0822 52.9284C22.8674 51.511 22.8281 50.1799 22.8281 48.5839ZM26.8494 58.5693C26.5858 58.8113 26.2045 58.8286 25.9072 58.6673C24.5836 57.5379 24.348 57.0136 23.6189 55.9361C21.4316 58.2294 19.8836 58.915 17.0457 58.915C13.6917 58.915 11.0781 56.7889 11.0781 52.5308C11.0781 49.2062 12.8336 46.9417 15.3294 45.8354C17.4943 44.8559 20.5174 44.6831 22.8281 44.4122V43.8821C22.8281 42.9084 22.901 41.756 22.3458 40.9147C21.8578 40.1599 20.9268 39.8488 20.1079 39.8488C18.588 39.8488 17.2307 40.6497 16.8998 42.3091C16.8325 42.6779 16.5689 43.0409 16.21 43.0582L12.3401 42.6318C12.0148 42.5569 11.6558 42.2861 11.7455 41.7733C12.6373 36.9563 16.8718 35.5043 20.6632 35.5043C22.6038 35.5043 25.1388 36.0344 26.67 37.544C28.6105 39.4051 28.4255 41.8885 28.4255 44.5909V50.9751C28.4255 52.8938 29.1994 53.7351 29.9286 54.7722C30.1866 55.141 30.2426 55.5846 29.9173 55.8612C29.1041 56.5584 27.6571 57.8549 26.8607 58.5809L26.8494 58.5693Z" fill="#221F1F"/>
</g>
</mask>
<g mask="url(#mask0_18_381)">
<rect x="-10" y="-0.776367" width="166" height="109.56" fill="black"/>
</g>
<defs>
<clipPath id="clip0_18_381">
<rect width="129" height="40" fill="white" transform="translate(11 35.4502)"/>
</clipPath>
</defs>
</svg>
