<svg width="150" height="100" viewBox="0 0 150 100" fill="none" xmlns="http://www.w3.org/2000/svg">
<rect width="150" height="99.8" transform="translate(0 0.100098)" fill="black" fill-opacity="0.01"/>
<mask id="mask0_1_116" style="mask-type:alpha" maskUnits="userSpaceOnUse" x="11" y="35" width="129" height="41">
<g clip-path="url(#clip0_1_116)">
<path d="M91.0113 66.7996C83.5239 72.4694 72.6713 75.4944 63.3274 75.4944C50.2258 75.4944 38.4309 70.5161 29.5077 62.2362C28.8066 61.5851 29.4347 60.6977 30.276 61.2048C39.906 66.961 51.813 70.4239 64.1126 70.4239C72.4077 70.4239 81.5328 68.6607 89.9233 65.0019C91.1908 64.4488 92.2508 65.8547 91.0113 66.7996Z" fill="#FF9900"/>
<path d="M94.1241 63.1408C93.1707 61.8847 87.7976 62.5473 85.3859 62.8412C84.6512 62.9334 84.5391 62.2765 85.2009 61.804C89.4802 58.7099 96.5021 59.603 97.321 60.6401C98.1398 61.683 97.1079 68.9143 93.0865 72.3657C92.4696 72.8958 91.8807 72.6134 92.1555 71.9105C93.0585 69.5942 95.0832 64.4027 94.1241 63.1408Z" fill="#FF9900"/>
<path d="M85.5542 39.9604V36.9527C85.5542 36.4975 85.8907 36.1921 86.2945 36.1921H99.4017C99.8224 36.1921 100.159 36.5033 100.159 36.9527V39.5283C100.153 39.9604 99.8 40.5251 99.1718 41.4182L92.3798 51.3806C94.9037 51.3172 97.5677 51.7033 99.856 53.0285C100.372 53.3282 100.512 53.7661 100.552 54.1982V57.4076C100.552 57.8455 100.08 58.3583 99.5868 58.0933C95.5543 55.921 90.1981 55.6848 85.7393 58.1163C85.285 58.3699 84.8082 57.8628 84.8082 57.4249V54.3768C84.8082 53.8871 84.8138 53.0516 85.2906 52.3083L93.1594 40.7153H86.3113C85.8907 40.7153 85.5542 40.4099 85.5542 39.9604Z" fill="#221F1F"/>
<path d="M37.741 58.7272H33.7533C33.3719 58.6984 33.0691 58.4045 33.041 58.03V37.0046C33.041 36.584 33.3831 36.2498 33.8094 36.2498H37.5279C37.9149 36.2671 38.2233 36.5725 38.2514 36.9528V39.7012H38.3243C39.2946 37.045 41.1174 35.8062 43.5739 35.8062C46.0697 35.8062 47.6289 37.045 48.7506 39.7012C49.7153 37.045 51.9083 35.8062 54.2583 35.8062C55.9296 35.8062 57.758 36.5149 58.8741 38.1052C60.1361 39.8741 59.8781 42.4439 59.8781 44.6968L59.8725 57.9666C59.8725 58.3872 59.5303 58.7272 59.1041 58.7272H55.122C54.7238 58.6984 54.4041 58.3699 54.4041 57.9666V46.823C54.4041 45.9357 54.4826 43.7231 54.2919 42.8818C53.9947 41.4701 53.1029 41.0726 51.9475 41.0726C50.9829 41.0726 49.9733 41.7352 49.5639 42.7954C49.1545 43.8556 49.1937 45.6303 49.1937 46.823V57.9666C49.1937 58.3872 48.8516 58.7272 48.4253 58.7272H44.4433C44.0394 58.6984 43.7254 58.3699 43.7254 57.9666L43.7198 46.823C43.7198 44.4779 44.0955 41.0265 41.2632 41.0265C38.3972 41.0265 38.5094 44.3914 38.5094 46.823V57.9666C38.5094 58.3872 38.1673 58.7272 37.741 58.7272Z" fill="#221F1F"/>
<path d="M111.443 35.8062C117.36 35.8062 120.563 41.0265 120.563 47.6642C120.563 54.0773 117.024 59.1651 111.443 59.1651C105.633 59.1651 102.47 53.9448 102.47 47.4395C102.47 40.8939 105.672 35.8062 111.443 35.8062ZM111.477 40.0988C108.538 40.0988 108.353 44.2128 108.353 46.7769C108.353 49.3467 108.314 54.8321 111.443 54.8321C114.534 54.8321 114.679 50.4069 114.679 47.7103C114.679 45.9357 114.607 43.8153 114.085 42.1328C113.636 40.6692 112.745 40.0988 111.477 40.0988Z" fill="#221F1F"/>
<path d="M128.236 58.7272H124.265C123.866 58.6984 123.547 58.3699 123.547 57.9666L123.541 36.9355C123.575 36.5494 123.906 36.2498 124.31 36.2498H128.006C128.353 36.2671 128.639 36.5091 128.718 36.8375V40.0527H128.791C129.907 37.1775 131.472 35.8062 134.225 35.8062C136.015 35.8062 137.759 36.4688 138.881 38.2838C139.924 39.9663 139.924 42.7954 139.924 44.8294V58.0645C139.879 58.4333 139.548 58.7272 139.155 58.7272H135.156C134.792 58.6984 134.489 58.4218 134.45 58.0645V46.6444C134.45 44.3454 134.708 40.9804 131.954 40.9804C130.984 40.9804 130.092 41.6488 129.649 42.6629C129.088 43.9478 129.015 45.2269 129.015 46.6444V57.9666C129.01 58.3872 128.662 58.7272 128.236 58.7272Z" fill="#221F1F"/>
<path d="M75.1054 48.6839V47.7965C72.2226 47.7965 69.1772 48.4303 69.1772 51.9221C69.1772 53.691 70.0689 54.8895 71.6001 54.8895C72.7218 54.8895 73.7257 54.1808 74.3595 53.0284C75.1447 51.6109 75.1054 50.2799 75.1054 48.6839ZM79.1268 58.6693C78.8632 58.9113 78.4818 58.9286 78.1845 58.7673C76.8609 57.6379 76.6254 57.1136 75.8962 56.0361C73.7089 58.3294 72.1609 59.015 69.323 59.015C65.9691 59.015 63.3555 56.8889 63.3555 52.6308C63.3555 49.3062 65.111 47.0417 67.6068 45.9354C69.7717 44.9559 72.7947 44.783 75.1054 44.5122V43.9821C75.1054 43.0083 75.1784 41.856 74.6231 41.0147C74.1352 40.2599 73.2041 39.9488 72.3853 39.9488C70.8654 39.9488 69.5081 40.7497 69.1772 42.4091C69.1099 42.7779 68.8463 43.1409 68.4873 43.1582L64.6174 42.7318C64.2921 42.6569 63.9332 42.3861 64.0229 41.8732C64.9147 37.0563 69.1491 35.6042 72.9405 35.6042C74.8811 35.6042 77.4162 36.1343 78.9473 37.644C80.8879 39.5051 80.7028 41.9885 80.7028 44.6908V51.0751C80.7028 52.9938 81.4768 53.835 82.2059 54.8722C82.4639 55.241 82.52 55.6846 82.1947 55.9612C81.3814 56.6584 79.9344 57.9548 79.138 58.6808L79.1268 58.6693Z" fill="#221F1F"/>
<path d="M22.8279 48.6839V47.7965C19.945 47.7965 16.8996 48.4303 16.8996 51.9221C16.8996 53.691 17.7913 54.8895 19.3225 54.8895C20.4442 54.8895 21.4481 54.1808 22.0819 53.0284C22.8671 51.6109 22.8279 50.2799 22.8279 48.6839ZM26.8492 58.6693C26.5856 58.9113 26.2042 58.9286 25.907 58.7673C24.5833 57.6379 24.3478 57.1136 23.6187 56.0361C21.4313 58.3294 19.8834 59.015 17.0454 59.015C13.6915 59.015 11.0779 56.8889 11.0779 52.6308C11.0779 49.3062 12.8334 47.0417 15.3292 45.9354C17.4941 44.9559 20.5171 44.783 22.8279 44.5122V43.9821C22.8279 43.0083 22.9008 41.856 22.3455 41.0147C21.8576 40.2599 20.9265 39.9488 20.1077 39.9488C18.5878 39.9488 17.2305 40.7497 16.8996 42.4091C16.8323 42.7779 16.5687 43.1409 16.2097 43.1582L12.3398 42.7318C12.0145 42.6569 11.6556 42.3861 11.7453 41.8732C12.6371 37.0563 16.8715 35.6042 20.6629 35.6042C22.6035 35.6042 25.1386 36.1343 26.6697 37.644C28.6103 39.5051 28.4252 41.9885 28.4252 44.6908V51.0751C28.4252 52.9938 29.1992 53.835 29.9283 54.8722C30.1863 55.241 30.2424 55.6846 29.9171 55.9612C29.1038 56.6584 27.6568 57.9548 26.8604 58.6808L26.8492 58.6693Z" fill="#221F1F"/>
</g>
</mask>
<g mask="url(#mask0_1_116)">
<rect x="-10" y="-0.67627" width="166" height="109.56" fill="black"/>
</g>
<defs>
<clipPath id="clip0_1_116">
<rect width="129" height="40" fill="white" transform="translate(11 35.5503)"/>
</clipPath>
</defs>
</svg>
