<svg width="150" height="100" viewBox="0 0 150 100" fill="none" xmlns="http://www.w3.org/2000/svg">
<g clip-path="url(#clip0_1_92)">
<rect width="150" height="99.8" transform="translate(0 0.100098)" fill="black" fill-opacity="0.01"/>
<mask id="mask0_1_92" style="mask-type:alpha" maskUnits="userSpaceOnUse" x="-8" y="-35" width="166" height="167">
<path d="M37.9775 51.7731L40.435 46.8579L42.8926 51.7731H37.9775ZM30.3162 58.5363H34.5732L36.1294 55.4238H44.7634L46.3196 58.5363H50.5766L40.4804 38.5158L30.3162 58.5363ZM33.9636 38.5904H18.1061V42.2151H23.9939V58.5136H28.0564V42.2151H33.9669V38.5904H33.9636ZM58.507 47.3475H55.589V42.2378H58.507C60.6728 42.2378 61.8627 43.1392 61.8627 44.7927C61.8659 46.4462 60.6501 47.3475 58.507 47.3475ZM65.977 44.6954C65.977 42.9446 65.3675 41.437 64.1289 40.3412C62.9131 39.1967 61.1137 38.5904 59.0193 38.5904H51.5039V58.5136H55.5663V51.2414H58.4357L62.644 58.5136H67.2641L62.5468 50.2428C65.5393 48.9038 65.977 46.1544 65.977 44.6954ZM85.5079 38.5904H69.0409V42.2151H78.4302L68.2368 58.5136H85.2875V54.8888H75.2659L85.5079 38.5904ZM10.9538 46.7153C7.69543 45.9599 6.52824 45.4022 6.52824 43.8946C6.52824 42.6301 7.72137 41.8261 9.39758 41.8261C12.0497 41.8261 14.41 43.6741 15.0649 44.1864L16.7671 40.7335C14.6499 39.1286 12.2442 38.2759 9.44621 38.2759C5.38375 38.2759 2.51441 40.6848 2.51441 44.1864C2.51441 48.0057 4.97199 49.3447 9.22898 50.3174C12.7792 51.1214 13.4373 51.825 13.4373 53.0181C13.4373 54.3798 12.2215 55.2325 10.2762 55.2325C7.9159 55.2325 5.97059 54.3312 3.70754 52.2659L2.05078 55.8096C4.36246 57.8036 7.2091 58.8249 10.1757 58.8249C14.5786 58.8249 17.3993 56.4646 17.3993 52.6939C17.3766 49.6073 15.5512 47.8565 10.9538 46.7153ZM88.5005 38.5904H95.0691C98.5707 38.5904 101.103 40.7562 101.103 44.4036C101.103 48.0511 98.4994 50.2655 95.0691 50.2655H89.7422V58.5363H88.5264L88.5005 38.5904ZM94.9719 49.121C97.8898 49.121 99.8384 47.3702 99.8384 44.4036C99.8384 41.437 97.8931 39.7349 94.9719 39.7349H89.6677V49.1242H94.9719V49.121ZM105.357 38.5904H106.572V57.3918H116.059V58.5363H105.331V38.5904H105.357ZM129.608 51.6272H121.169L118.565 58.5104H117.252L124.719 38.5871H126.032L133.499 58.5104H132.186C132.163 58.5363 129.608 51.6272 129.608 51.6272ZM125.377 40.0234C125.377 40.0234 124.962 41.5797 124.622 42.4324L121.558 50.5087H129.17L126.204 42.4324C125.863 41.5797 125.448 40.0234 125.448 40.0234H125.377ZM140.019 49.8764L133.207 38.5904H134.617L139.335 46.4235C139.896 47.4221 140.551 48.6865 140.551 48.6865H140.599C140.599 48.6865 141.209 47.4221 141.815 46.4235L146.532 38.5904H147.949L141.235 49.8764V58.5104H140.019V49.8764Z" fill="black"/>
</mask>
<g mask="url(#mask0_1_92)">
<rect x="-8" y="-5.67627" width="166" height="109.56" fill="black"/>
</g>
</g>
<defs>
<clipPath id="clip0_1_92">
<rect width="150" height="99.8" fill="white" transform="translate(0 0.100098)"/>
</clipPath>
</defs>
</svg>
