<svg width="166" height="166" viewBox="0 0 166 166" fill="none" xmlns="http://www.w3.org/2000/svg">
<mask id="mask0_35_154" style="mask-type:alpha" maskUnits="userSpaceOnUse" x="0" y="0" width="166" height="166">
<path d="M45.9775 86.2228L48.435 81.3077L50.8926 86.2228H45.9775ZM38.3162 92.986H42.5732L44.1294 89.8735H52.7634L54.3196 92.986H58.5766L48.4804 72.9655L38.3162 92.986ZM41.9636 73.0401H26.1061V76.6648H31.9939V92.9633H36.0564V76.6648H41.9669V73.0401H41.9636ZM66.507 81.7972H63.589V76.6875H66.507C68.6728 76.6875 69.8627 77.5889 69.8627 79.2424C69.8659 80.8959 68.6501 81.7972 66.507 81.7972ZM73.977 79.1451C73.977 77.3943 73.3675 75.8867 72.1289 74.7909C70.9131 73.6464 69.1137 73.0401 67.0193 73.0401H59.5039V92.9633H63.5663V85.6911H66.4357L70.644 92.9633H75.2641L70.5468 84.6925C73.5393 83.3535 73.977 80.6041 73.977 79.1451ZM93.5079 73.0401H77.0409V76.6648H86.4302L76.2368 92.9633H93.2875V89.3386H83.2659L93.5079 73.0401ZM18.9538 81.165C15.6954 80.4096 14.5282 79.8519 14.5282 78.3443C14.5282 77.0798 15.7214 76.2758 17.3976 76.2758C20.0497 76.2758 22.41 78.1238 23.0649 78.6361L24.7671 75.1832C22.6499 73.5783 20.2442 72.7256 17.4462 72.7256C13.3838 72.7256 10.5144 75.1345 10.5144 78.6361C10.5144 82.4554 12.972 83.7944 17.229 84.7671C20.7792 85.5711 21.4373 86.2747 21.4373 87.4678C21.4373 88.8295 20.2215 89.6822 18.2762 89.6822C15.9159 89.6822 13.9706 88.7809 11.7075 86.7156L10.0508 90.2593C12.3625 92.2533 15.2091 93.2746 18.1757 93.2746C22.5786 93.2746 25.3993 90.9143 25.3993 87.1436C25.3766 84.057 23.5512 82.3062 18.9538 81.165ZM96.5005 73.0401H103.069C106.571 73.0401 109.103 75.2059 109.103 78.8533C109.103 82.5008 106.499 84.7152 103.069 84.7152H97.7422V92.986H96.5264L96.5005 73.0401ZM102.972 83.5707C105.89 83.5707 107.838 81.8199 107.838 78.8533C107.838 75.8867 105.893 74.1846 102.972 74.1846H97.6677V83.5739H102.972V83.5707ZM113.357 73.0401H114.572V91.8415H124.059V92.986H113.331V73.0401H113.357ZM137.608 86.0769H129.169L126.565 92.9601H125.252L132.719 73.0368H134.032L141.499 92.9601H140.186C140.163 92.986 137.608 86.0769 137.608 86.0769ZM133.377 74.4731C133.377 74.4731 132.962 76.0294 132.622 76.8821L129.558 84.9584H137.17L134.204 76.8821C133.863 76.0294 133.448 74.4731 133.448 74.4731H133.377ZM148.019 84.3261L141.207 73.0401H142.617L147.335 80.8732C147.896 81.8718 148.551 83.1363 148.551 83.1363H148.599C148.599 83.1363 149.209 81.8718 149.815 80.8732L154.532 73.0401H155.949L149.235 84.3261V92.9601H148.019V84.3261Z" fill="black"/>
</mask>
<g mask="url(#mask0_35_154)">
<rect y="28.7734" width="166" height="109.56" fill="black"/>
</g>
</svg>
