<svg width="132" height="50" viewBox="0 0 132 50" fill="none" xmlns="http://www.w3.org/2000/svg">
<mask id="mask0_2_64" style="mask-type:luminance" maskUnits="userSpaceOnUse" x="31" y="1" width="72" height="47">
<path d="M102.162 1.92297V47.9229H31.1621V1.92297H102.162Z" fill="white"/>
</mask>
<g mask="url(#mask0_2_64)">
<path fill-rule="evenodd" clip-rule="evenodd" d="M80.2324 1.92297C69.7499 5.53115 64.5571 13.9203 63.3364 24.9227C62.2037 35.1335 56.3041 39.844 50.8723 41.6768L53.0922 47.923C63.5746 44.315 68.7675 35.9257 69.9882 24.9234C71.1209 14.7126 77.0205 10.0021 82.4521 8.16927L80.2324 1.92297ZM74.65 24.9227C74.65 16.8871 80.8087 11.2803 88.406 11.2803C96.0033 11.2803 102.162 16.8871 102.162 24.9227V37.5315H95.2276V24.9227C95.2276 20.4347 92.1735 17.7346 88.406 17.7346C84.6386 17.7346 81.5845 20.4347 81.5845 24.9227L81.5664 37.5315H74.65V24.9227ZM44.9181 17.7346C41.1507 17.7346 38.0966 20.4347 38.0966 24.9227C38.0966 29.2857 41.1507 32.1578 44.9181 32.1578C48.6856 32.1578 51.7399 29.2857 51.7399 24.9227C51.7399 20.4347 48.6856 17.7346 44.9181 17.7346ZM58.6742 24.9227C58.6742 32.9585 52.5154 38.5652 44.9181 38.5652C37.3209 38.5652 31.1621 32.9585 31.1621 24.9227C31.1621 16.8871 37.3209 11.2803 44.9181 11.2803C52.5154 11.2803 58.6742 16.8871 58.6742 24.9227Z" fill="black"/>
</g>
</svg>
