<svg width="119" height="100" viewBox="0 0 119 100" fill="none" xmlns="http://www.w3.org/2000/svg">
<rect width="119" height="99" transform="translate(0 0.5)" fill="black" fill-opacity="0.01"/>
<g clip-path="url(#clip0_1_98)">
<mask id="mask0_1_98" style="mask-type:luminance" maskUnits="userSpaceOnUse" x="26" y="22" width="71" height="47">
<path d="M97 22.9504V68.9504H26V22.9504H97Z" fill="white"/>
</mask>
<g mask="url(#mask0_1_98)">
<path fill-rule="evenodd" clip-rule="evenodd" d="M75.0702 22.9504C64.5878 26.5586 59.395 34.9477 58.1743 45.9502C57.0416 56.161 51.142 60.8715 45.7102 62.7043L47.9301 68.9504C58.4125 65.3424 63.6054 56.9531 64.8261 45.9509C65.9588 35.7401 71.8583 31.0296 77.2899 29.1967L75.0702 22.9504ZM69.4879 45.9502C69.4879 37.9146 75.6466 32.3077 83.2439 32.3077C90.8412 32.3077 97 37.9146 97 45.9502V58.559H90.0655V45.9502C90.0655 41.4622 87.0114 38.7621 83.2439 38.7621C79.4765 38.7621 76.4224 41.4622 76.4224 45.9502L76.4043 58.559H69.4879V45.9502ZM39.756 38.7621C35.9886 38.7621 32.9345 41.4622 32.9345 45.9502C32.9345 50.3132 35.9886 53.1853 39.756 53.1853C43.5235 53.1853 46.5778 50.3132 46.5778 45.9502C46.5778 41.4622 43.5235 38.7621 39.756 38.7621ZM53.5121 45.9502C53.5121 53.9859 47.3533 59.5926 39.756 59.5926C32.1588 59.5926 26 53.9859 26 45.9502C26 37.9146 32.1588 32.3077 39.756 32.3077C47.3533 32.3077 53.5121 37.9146 53.5121 45.9502Z" fill="black"/>
</g>
</g>
<defs>
<clipPath id="clip0_1_98">
<rect width="71" height="46" fill="white" transform="translate(26 22.9502)"/>
</clipPath>
</defs>
</svg>
