<svg width="42" height="49" viewBox="0 0 42 49" fill="none" xmlns="http://www.w3.org/2000/svg">
<path d="M42 11.8646V20.3101C40.5397 20.166 38.6423 19.8306 36.5434 19.0535C33.8028 18.0381 31.7627 16.6499 30.4265 15.575V32.6448L30.3924 32.5914C30.4141 32.9299 30.4265 33.2746 30.4265 33.6225C30.4265 42.0994 23.6027 49 15.2133 49C6.8238 49 0 42.0994 0 33.6225C0 25.1456 6.8238 18.2419 15.2133 18.2419C16.0348 18.2419 16.8409 18.3076 17.6284 18.4361V26.7595C16.8719 26.4869 16.0596 26.3395 15.2133 26.3395C11.2418 26.3395 8.00812 29.6049 8.00812 33.6225C8.00812 37.64 11.2418 40.9054 15.2133 40.9054C19.1848 40.9054 22.4184 37.6368 22.4184 33.6225C22.4184 33.472 22.4153 33.3216 22.406 33.1712V0H30.7551C30.7861 0.714504 30.8141 1.43531 30.8451 2.14981C30.9009 3.55689 31.3969 4.90758 32.2619 6.0138C33.2757 7.31433 34.7732 8.82476 36.8752 10.0313C38.8439 11.1563 40.6917 11.6421 42 11.8708V11.8646Z" fill="black"/>
</svg>
