<svg width="103" height="100" viewBox="0 0 103 100" fill="none" xmlns="http://www.w3.org/2000/svg">
<rect width="103" height="99" transform="translate(0 0.5)" fill="black" fill-opacity="0.01"/>
<path d="M74 36.3646V44.8101C72.5397 44.666 70.6423 44.3306 68.5434 43.5535C65.8028 42.5381 63.7627 41.1499 62.4265 40.075V57.1448L62.3924 57.0914C62.4141 57.4299 62.4265 57.7746 62.4265 58.1225C62.4265 66.5994 55.6027 73.5 47.2133 73.5C38.8238 73.5 32 66.5994 32 58.1225C32 49.6456 38.8238 42.7419 47.2133 42.7419C48.0348 42.7419 48.8409 42.8076 49.6284 42.9361V51.2595C48.8719 50.9869 48.0596 50.8395 47.2133 50.8395C43.2418 50.8395 40.0081 54.1049 40.0081 58.1225C40.0081 62.14 43.2418 65.4054 47.2133 65.4054C51.1848 65.4054 54.4184 62.1368 54.4184 58.1225C54.4184 57.972 54.4153 57.8216 54.406 57.6712V24.5H62.7551C62.7861 25.2145 62.8141 25.9353 62.8451 26.6498C62.9009 28.0569 63.3969 29.4076 64.2619 30.5138C65.2757 31.8143 66.7732 33.3248 68.8752 34.5313C70.8439 35.6563 72.6917 36.1421 74 36.3708V36.3646Z" fill="black"/>
</svg>
