<svg width="136" height="100" viewBox="0 0 136 100" fill="none" xmlns="http://www.w3.org/2000/svg">
<rect width="136" height="100" fill="black" fill-opacity="0.01"/>
<mask id="mask0_1_65" style="mask-type:alpha" maskUnits="userSpaceOnUse" x="2" y="32" width="126" height="38">
<path d="M14.3411 37.6394C17.0458 37.6394 19.2351 39.4489 19.7932 41.9576H25.46C25.1594 39.3666 24.0003 37.1869 21.8968 35.5008C19.7932 33.8147 17.2604 32.9922 14.2982 32.9922C10.9926 32.9922 8.2451 33.9792 6.09864 35.9532C3.90918 37.9684 2.836 40.4771 2.836 43.5616C2.836 46.6461 3.90918 49.1547 6.09854 51.1288C8.245 53.1029 10.9926 54.0899 14.2981 54.0899C17.2603 54.0899 19.7931 53.2673 21.8967 51.5812C24.0002 49.895 25.1594 47.7565 25.4599 45.1656H19.836C19.2779 47.6742 17.0457 49.4427 14.341 49.4427C11.0354 49.4427 8.58835 46.9752 8.58835 43.5617C8.58846 40.1069 10.9497 37.6394 14.3411 37.6394Z" fill="white"/>
<path d="M57.9417 37.929V33.4052H52.3608V53.7214H57.9417V43.9335C57.9417 40.3143 60.9467 38.0936 65.6261 38.0936V32.7471C62.1487 32.7471 59.4442 34.6389 57.9417 37.929Z" fill="white"/>
<path d="M77.3365 32.9922C74.0308 32.9922 71.2834 33.9792 69.1369 35.9532C66.9475 37.9684 65.8741 40.4772 65.8741 43.5616C65.8741 46.6461 66.9474 49.1547 69.1369 51.1288C71.2834 53.1029 74.0309 54.0899 77.3365 54.0899C79.9552 54.0899 82.3163 53.3908 84.3769 51.9514C86.4376 50.512 87.7684 48.7024 88.3694 46.4815H82.7457C81.9299 48.3323 79.8264 49.7305 77.3794 49.7305C74.4602 49.7305 72.142 47.8798 71.4551 45.2067H88.5841C88.7128 44.7543 88.7557 44.2197 88.7557 43.6027C88.7128 40.5183 87.6396 37.9684 85.4931 35.9532C83.3467 33.9792 80.642 32.9922 77.3365 32.9922ZM71.6696 41.1352C72.5712 38.8321 74.7607 37.3516 77.3794 37.3516C80.0839 37.3516 82.4451 38.8732 83.3038 41.1352H71.6696Z" fill="white"/>
<path d="M106.842 33.28H103.049L92.9973 46.8386V49.0836H103.666V53.7212H106.842V49.0836H110.604V46.5432H106.842V33.28ZM103.666 46.5432H96.2042L103.697 36.677L103.666 46.5432Z" fill="white"/>
<path d="M116.184 51.1825C116.215 50.8279 116.277 50.5031 116.4 50.1781C116.647 49.5578 117.479 48.8193 117.849 48.4649C118.034 48.2876 118.435 48.0219 119.021 47.6673C119.607 47.3129 119.977 47.0766 120.131 46.9879C120.285 46.8994 120.748 46.6335 121.457 46.2494C123.276 45.2156 124.201 44.5953 125.558 43.3842C126.884 42.173 127.532 40.6962 127.532 38.9533C127.532 37.2104 126.853 35.7925 125.527 34.67C124.201 33.5771 122.474 33.0159 120.409 33.0159C118.312 33.0159 116.585 33.5771 115.228 34.7291C113.872 35.8812 113.132 37.4467 113.039 39.4258H116.092C116.246 36.9741 118.004 35.5563 120.347 35.5563C122.721 35.5563 124.386 37.0037 124.386 39.101C124.386 41.3755 122.536 42.9411 119.114 44.8612C118.312 45.3042 117.695 45.6587 117.294 45.9245C116.893 46.1903 116.338 46.5743 115.629 47.1356C114.92 47.6968 114.396 48.2581 114.057 48.7602C113.317 49.8236 112.638 51.5369 112.638 53.4274V53.7228H127.84V51.1824H116.184V51.1825Z" fill="white"/>
<path d="M57.5747 66.6488H54.3793L53.8039 67.8173H52.3606L55.2383 62.0571H56.7157L59.5934 67.8173H58.1504L57.5747 66.6488ZM57.0422 65.5789L55.977 63.4148L54.9118 65.5789H57.0422Z" fill="white"/>
<path d="M69.0665 64.5799V64.761C69.0665 67.0816 67.5376 67.9043 65.8967 67.9043C64.0927 67.9043 62.3491 66.9333 62.3491 64.9255C62.3491 62.9094 64.11 61.9548 65.9742 61.9548C66.9793 61.9548 68.0958 62.2429 68.826 62.6624L68.4395 63.7568C67.8725 63.4196 67.0222 63.0986 66.0514 63.0986C64.7458 63.0986 63.7493 63.6335 63.7493 64.9089C63.7493 66.2092 64.7889 66.7605 65.8797 66.7605C66.7986 66.7605 67.5289 66.3408 67.6491 65.6001H65.9999V64.5798H69.0665V64.5799Z" fill="white"/>
<path d="M76.1864 65.3572V66.4105H75.3447V67.8176H73.9359V66.4105H69.8043V65.2914L73.601 62.0574H75.3447V65.3572H76.1864ZM71.3417 65.3572H73.9358V63.1435L71.3417 65.3572Z" fill="white"/>
<path d="M76.7526 66.5383C77.5344 66.382 81.2194 65.6414 81.2194 64.0285C81.2194 63.3455 80.5752 63.0986 79.742 63.0986C78.6595 63.0986 77.7147 63.51 77.1221 63.8391L76.7442 62.7365C77.4656 62.3333 78.5823 61.9548 79.8193 61.9548C81.2537 61.9548 82.6196 62.4732 82.6196 63.9051C82.6196 65.6414 80.6524 66.3244 79.4069 66.67H82.6368V67.8138H76.7526V66.5383Z" fill="white"/>
<path d="M85.522 65.5334C85.522 64.0358 86.6904 63.1882 88.2278 63.1882C88.9579 63.1882 89.6194 63.3693 90.2981 63.7314L89.8428 64.727C89.336 64.3732 88.8291 64.2168 88.2451 64.2168C87.472 64.2168 86.8191 64.6777 86.8191 65.517C86.8191 66.3646 87.4633 66.8501 88.2364 66.8501C88.8204 66.8501 89.3273 66.6691 89.8598 66.3153L90.3324 67.3109C89.6194 67.7388 88.9237 67.9117 88.2106 67.9117C86.6816 67.9117 85.522 67.0229 85.522 65.5334Z" fill="white"/>
<path d="M90.821 65.5664C90.821 64.1592 91.9205 63.1882 93.458 63.1882C94.9785 63.1882 96.0608 64.151 96.0608 65.5581C96.0608 66.9488 94.9786 67.9117 93.458 67.9117C91.9205 67.9117 90.821 66.9571 90.821 65.5664ZM94.7896 65.5581C94.7896 64.7929 94.2226 64.2909 93.4409 64.2909C92.6764 64.2909 92.118 64.7929 92.118 65.5581C92.118 66.3153 92.6764 66.8089 93.4409 66.8089C94.2226 66.8089 94.7896 66.3153 94.7896 65.5581Z" fill="white"/>
<path d="M104.212 65.0232V67.8128H102.932V65.1301C102.932 64.6281 102.709 64.3155 102.227 64.3155C101.626 64.3155 101.223 64.8175 101.162 65.8213V67.8128H99.891V65.1301C99.891 64.6281 99.6592 64.3155 99.1866 64.3155C98.5338 64.3155 98.113 64.8915 98.113 66.1094V67.8128H96.8503V63.2869H98.113V64.3649C98.3622 63.682 98.8773 63.1882 99.5904 63.1882C100.346 63.1882 100.879 63.5833 101.076 64.3238C101.343 63.6574 101.875 63.1882 102.631 63.1882C103.602 63.1881 104.212 63.8299 104.212 65.0232Z" fill="white"/>
<path d="M110.516 65.5335C110.516 66.9242 109.537 67.9034 108.214 67.9034C107.406 67.9034 106.771 67.525 106.401 66.8995V69.3764H105.13V63.3034H106.401V64.184C106.762 63.5667 107.398 63.1882 108.214 63.1882C109.554 63.1883 110.516 64.1594 110.516 65.5335ZM109.219 65.5419C109.219 64.7848 108.66 64.2416 107.819 64.2416C106.968 64.2416 106.402 64.7848 106.402 65.5419C106.402 66.2989 106.968 66.8421 107.819 66.8421C108.66 66.842 109.219 66.2988 109.219 65.5419Z" fill="white"/>
<path d="M115.875 65.1056V67.8129H114.595V66.6938C114.157 67.4672 113.444 67.8869 112.568 67.8869C111.846 67.8869 111.202 67.5496 111.202 66.8089C111.202 65.5581 113.35 65.1055 114.578 64.908C114.492 64.4143 114.097 64.2251 113.521 64.2251C112.886 64.2251 112.19 64.4637 111.7 64.7764L111.305 63.8219C111.932 63.4434 112.74 63.1882 113.582 63.1882C114.801 63.1882 115.875 63.682 115.875 65.1056ZM114.595 65.5745C113.281 65.8297 112.559 66.0684 112.559 66.5127C112.559 66.7925 112.851 66.8995 113.109 66.8995C113.77 66.8995 114.518 66.2412 114.595 65.5745Z" fill="white"/>
<path d="M121.732 65.27V67.8128H120.47V65.4676C120.47 64.7106 120.126 64.3155 119.448 64.3155C118.683 64.3155 118.056 64.9574 118.056 66.4632V67.8128H116.793V63.2869H118.056V64.5459C118.357 63.7559 118.984 63.1882 119.877 63.1882C121.028 63.1881 121.732 63.904 121.732 65.27Z" fill="white"/>
<path d="M127.839 63.2888L125.597 67.8394C125.005 69.0079 124.567 69.5839 123.467 69.5839C123.175 69.5839 122.832 69.551 122.411 69.477L122.591 68.3743C122.943 68.4648 123.227 68.506 123.467 68.506C123.94 68.506 124.129 68.2097 124.309 67.8312L124.352 67.7407L122.153 63.2889H123.527L125.005 66.3748L126.474 63.2889L127.839 63.2888Z" fill="white"/>
<path d="M38.9345 54.1055V52.5388H33.1548C34.8354 53.532 36.8149 54.1055 38.9345 54.1055Z" fill="#49BEA1"/>
<path d="M38.9346 32.9817C36.8149 32.9817 34.8353 33.5553 33.1548 34.5485H38.9346V32.9817Z" fill="#49BEA1"/>
<path d="M38.9344 49.2178V37.8701H29.6337C29.3036 38.3657 29.0153 38.8895 28.7741 39.4369H34.8505C33.9047 40.3003 33.2569 41.4596 33.0692 42.7606H27.9401C27.9203 43.0188 27.9099 43.2794 27.9099 43.5425C27.9099 43.8065 27.9204 44.0682 27.9402 44.3274H33.0691C33.2568 45.6283 33.9046 46.7876 34.8504 47.651H28.7752C29.0167 48.1984 29.3052 48.7221 29.6355 49.2178H38.9344Z" fill="#49BEA1"/>
<path d="M38.9344 49.2182C42.2055 49.2182 44.8572 46.6779 44.8572 43.5444C44.8572 40.4109 42.2055 37.8706 38.9344 37.8706V32.9817C45.0231 32.9817 49.9589 37.7101 49.9589 43.5429C49.9589 49.3758 45.0231 54.1042 38.9344 54.1042V49.2182Z" fill="white"/>
</mask>
<g mask="url(#mask0_1_65)">
<rect y="0.450195" width="150" height="99" fill="black"/>
</g>
</svg>
