<svg width="136" height="100" viewBox="0 0 136 100" fill="none" xmlns="http://www.w3.org/2000/svg">
<mask id="mask0_18_413" style="mask-type:alpha" maskUnits="userSpaceOnUse" x="2" y="32" width="126" height="38">
<path d="M14.3411 37.6393C17.0457 37.6393 19.2351 39.4489 19.7932 41.9576H25.4599C25.1594 39.3666 24.0003 37.1869 21.8967 35.5007C19.7932 33.8146 17.2604 32.9921 14.2982 32.9921C10.9925 32.9921 8.24504 33.9791 6.09858 35.9532C3.90911 37.9683 2.83594 40.4771 2.83594 43.5615C2.83594 46.6461 3.90911 49.1547 6.09848 51.1287C8.24494 53.1028 10.9925 54.0898 14.2981 54.0898C17.2603 54.0898 19.7931 53.2672 21.8966 51.5812C24.0002 49.8949 25.1594 47.7565 25.4598 45.1655H19.836C19.2779 47.6742 17.0456 49.4426 14.341 49.4426C11.0353 49.4426 8.58829 46.9751 8.58829 43.5616C8.5884 40.1068 10.9496 37.6393 14.3411 37.6393Z" fill="white"/>
<path d="M57.9413 37.9288V33.405H52.3604V53.7212H57.9413V43.9333C57.9413 40.3141 60.9463 38.0934 65.6257 38.0934V32.7469C62.1483 32.7469 59.4437 34.6387 57.9413 37.9288Z" fill="white"/>
<path d="M77.3363 32.9921C74.0307 32.9921 71.2832 33.9791 69.1368 35.9532C66.9474 37.9683 65.874 40.4772 65.874 43.5615C65.874 46.6461 66.9473 49.1547 69.1368 51.1287C71.2832 53.1028 74.0308 54.0898 77.3363 54.0898C79.9551 54.0898 82.3162 53.3907 84.3768 51.9513C86.4375 50.5119 87.7683 48.7023 88.3693 46.4815H82.7456C81.9298 48.3322 79.8263 49.7304 77.3793 49.7304C74.4601 49.7304 72.1419 47.8798 71.455 45.2066H88.5839C88.7127 44.7542 88.7556 44.2197 88.7556 43.6026C88.7127 40.5183 87.6395 37.9683 85.493 35.9532C83.3466 33.9791 80.6419 32.9921 77.3363 32.9921ZM71.6695 41.1351C72.571 38.832 74.7606 37.3515 77.3793 37.3515C80.0838 37.3515 82.445 38.8731 83.3036 41.1351H71.6695Z" fill="white"/>
<path d="M106.842 33.2799H103.049L92.9971 46.8384V49.0834H103.666V53.7211H106.842V49.0834H110.604V46.5431H106.842V33.2799ZM103.666 46.5431H96.204L103.697 36.6769L103.666 46.5431Z" fill="white"/>
<path d="M116.184 51.1825C116.215 50.8279 116.277 50.5031 116.4 50.1781C116.647 49.5578 117.479 48.8193 117.849 48.4649C118.035 48.2876 118.435 48.0219 119.021 47.6673C119.607 47.3129 119.977 47.0766 120.131 46.9879C120.285 46.8994 120.748 46.6335 121.457 46.2494C123.277 45.2156 124.202 44.5953 125.558 43.3842C126.884 42.173 127.532 40.6962 127.532 38.9533C127.532 37.2104 126.854 35.7925 125.527 34.67C124.202 33.5771 122.475 33.0159 120.409 33.0159C118.312 33.0159 116.585 33.5771 115.229 34.7291C113.872 35.8812 113.132 37.4467 113.04 39.4258H116.092C116.246 36.9741 118.004 35.5563 120.347 35.5563C122.722 35.5563 124.387 37.0037 124.387 39.101C124.387 41.3755 122.537 42.9411 119.114 44.8612C118.312 45.3042 117.695 45.6587 117.295 45.9245C116.894 46.1903 116.339 46.5743 115.63 47.1356C114.92 47.6968 114.396 48.2581 114.057 48.7602C113.317 49.8236 112.639 51.5369 112.639 53.4274V53.7228H127.84V51.1824H116.184V51.1825Z" fill="white"/>
<path d="M57.5744 66.6487H54.379L53.8036 67.8172H52.3604L55.2381 62.057H56.7155L59.5932 67.8172H58.1501L57.5744 66.6487ZM57.0419 65.5788L55.9767 63.4147L54.9115 65.5788H57.0419Z" fill="white"/>
<path d="M69.066 64.5799V64.761C69.066 67.0816 67.5371 67.9043 65.8962 67.9043C64.0922 67.9043 62.3486 66.9333 62.3486 64.9255C62.3486 62.9094 64.1096 61.9548 65.9737 61.9548C66.9788 61.9548 68.0953 62.2429 68.8255 62.6624L68.4391 63.7568C67.872 63.4196 67.0217 63.0986 66.0509 63.0986C64.7453 63.0986 63.7488 63.6335 63.7488 64.9089C63.7488 66.2092 64.7884 66.7605 65.8792 66.7605C66.7981 66.7605 67.5284 66.3408 67.6486 65.6001H65.9994V64.5798H69.066V64.5799Z" fill="white"/>
<path d="M76.1859 65.357V66.4103H75.3441V67.8175H73.9354V66.4103H69.8037V65.2912L73.6004 62.0572H75.3441V65.357H76.1859ZM71.3412 65.357H73.9353V63.1434L71.3412 65.357Z" fill="white"/>
<path d="M76.7525 66.5383C77.5344 66.382 81.2194 65.6414 81.2194 64.0285C81.2194 63.3455 80.5751 63.0986 79.742 63.0986C78.6595 63.0986 77.7146 63.51 77.122 63.8391L76.7441 62.7365C77.4656 62.3333 78.5823 61.9548 79.8192 61.9548C81.2537 61.9548 82.6195 62.4732 82.6195 63.9051C82.6195 65.6414 80.6523 66.3244 79.4068 66.67H82.6367V67.8138H76.7525V66.5383Z" fill="white"/>
<path d="M85.5215 65.5332C85.5215 64.0356 86.6898 63.188 88.2273 63.188C88.9573 63.188 89.6188 63.3691 90.2976 63.7312L89.8423 64.7268C89.3355 64.3729 88.8286 64.2166 88.2446 64.2166C87.4714 64.2166 86.8185 64.6774 86.8185 65.5168C86.8185 66.3644 87.4627 66.8499 88.2359 66.8499C88.8199 66.8499 89.3268 66.6689 89.8593 66.315L90.3319 67.3107C89.6188 67.7386 88.9231 67.9114 88.2101 67.9114C86.6811 67.9114 85.5215 67.0226 85.5215 65.5332Z" fill="white"/>
<path d="M90.8213 65.5661C90.8213 64.159 91.9208 63.188 93.4583 63.188C94.9788 63.188 96.061 64.1507 96.061 65.5579C96.061 66.9486 94.9789 67.9114 93.4583 67.9114C91.9208 67.9114 90.8213 66.9568 90.8213 65.5661ZM94.7898 65.5579C94.7898 64.7926 94.2228 64.2906 93.4412 64.2906C92.6766 64.2906 92.1182 64.7926 92.1182 65.5579C92.1182 66.315 92.6766 66.8087 93.4412 66.8087C94.2228 66.8087 94.7898 66.315 94.7898 65.5579Z" fill="white"/>
<path d="M104.211 65.023V67.8125H102.931V65.1299C102.931 64.6279 102.708 64.3153 102.227 64.3153C101.625 64.3153 101.222 64.8172 101.162 65.8211V67.8125H99.8904V65.1299C99.8904 64.6279 99.6585 64.3153 99.1859 64.3153C98.5331 64.3153 98.1123 64.8913 98.1123 66.1091V67.8125H96.8496V63.2867H98.1123V64.3647C98.3615 63.6817 98.8767 63.188 99.5897 63.188C100.346 63.188 100.878 63.583 101.076 64.3236C101.342 63.6571 101.875 63.188 102.63 63.188C103.601 63.1879 104.211 63.8297 104.211 65.023Z" fill="white"/>
<path d="M110.516 65.5333C110.516 66.9239 109.537 67.9032 108.214 67.9032C107.406 67.9032 106.771 67.5247 106.401 66.8992V69.3762H105.13V63.3032H106.401V64.1837C106.762 63.5665 107.398 63.188 108.214 63.188C109.554 63.1881 110.516 64.1592 110.516 65.5333ZM109.219 65.5416C109.219 64.7846 108.66 64.2414 107.819 64.2414C106.968 64.2414 106.401 64.7846 106.401 65.5416C106.401 66.2987 106.968 66.8418 107.819 66.8418C108.66 66.8417 109.219 66.2986 109.219 65.5416Z" fill="white"/>
<path d="M115.875 65.1054V67.8126H114.595V66.6935C114.157 67.4669 113.444 67.8867 112.568 67.8867C111.846 67.8867 111.202 67.5493 111.202 66.8087C111.202 65.5579 113.35 65.1053 114.578 64.9078C114.492 64.414 114.097 64.2248 113.521 64.2248C112.886 64.2248 112.19 64.4635 111.7 64.7761L111.305 63.8216C111.932 63.4432 112.74 63.188 113.582 63.188C114.801 63.188 115.875 63.6817 115.875 65.1054ZM114.595 65.5743C113.281 65.8294 112.559 66.0681 112.559 66.5124C112.559 66.7923 112.851 66.8992 113.109 66.8992C113.771 66.8992 114.518 66.241 114.595 65.5743Z" fill="white"/>
<path d="M121.732 65.2698V67.8125H120.469V65.4674C120.469 64.7103 120.126 64.3153 119.447 64.3153C118.683 64.3153 118.056 64.9571 118.056 66.463V67.8125H116.793V63.2867H118.056V64.5457C118.356 63.7557 118.983 63.188 119.877 63.188C121.028 63.1879 121.732 63.9037 121.732 65.2698Z" fill="white"/>
<path d="M127.839 63.2888L125.597 67.8393C125.004 69.0078 124.566 69.5839 123.467 69.5839C123.175 69.5839 122.831 69.5509 122.41 69.4769L122.59 68.3743C122.943 68.4647 123.226 68.5059 123.467 68.5059C123.939 68.5059 124.128 68.2097 124.308 67.8311L124.351 67.7407L122.152 63.2889H123.527L125.004 66.3747L126.473 63.2889L127.839 63.2888Z" fill="white"/>
<path d="M38.9349 54.1053V52.5386H33.1553C34.8359 53.5318 36.8154 54.1053 38.9349 54.1053Z" fill="#49BEA1"/>
<path d="M38.935 32.9816C36.8154 32.9816 34.8358 33.5551 33.1553 34.5484H38.935V32.9816Z" fill="#49BEA1"/>
<path d="M38.9346 49.2177V37.87H29.634C29.3039 38.3656 29.0156 38.8893 28.7743 39.4368H34.8507C33.9049 40.3002 33.2572 41.4595 33.0695 42.7604H27.9403C27.9205 43.0187 27.9102 43.2793 27.9102 43.5424C27.9102 43.8064 27.9206 44.0681 27.9404 44.3272H33.0694C33.2571 45.6281 33.9048 46.7875 34.8506 47.6509H28.7754C29.0169 48.1983 29.3054 48.7219 29.6357 49.2177H38.9346Z" fill="#49BEA1"/>
<path d="M38.9346 49.2181C42.2056 49.2181 44.8573 46.6778 44.8573 43.5443C44.8573 40.4108 42.2056 37.8705 38.9346 37.8705V32.9816C45.0232 32.9816 49.959 37.71 49.959 43.5428C49.959 49.3756 45.0232 54.104 38.9346 54.104V49.2181Z" fill="white"/>
</mask>
<g mask="url(#mask0_18_413)">
<rect y="0.450195" width="150" height="99" fill="black"/>
</g>
</svg>
