<svg width="414" height="182" viewBox="0 0 414 182" fill="none" xmlns="http://www.w3.org/2000/svg">
<rect width="414" height="182" rx="20" fill="#E8FDF8"/>
<g clip-path="url(#clip0_415_190)">
<path d="M72.2628 60.2217C79.0245 60.2217 84.4978 64.947 85.8931 71.4981H100.06C99.3086 64.7321 96.4109 59.0402 91.152 54.6371C85.8931 50.2339 79.561 48.0862 72.1557 48.0862C63.8914 48.0862 57.0228 50.6635 51.6566 55.8185C46.1829 61.0809 43.5 67.632 43.5 75.6866C43.5 83.7415 46.1829 90.2924 51.6564 95.4474C57.0225 100.602 63.8914 103.18 72.1553 103.18C79.5609 103.18 85.8929 101.032 91.1518 96.629C96.4106 92.2255 99.3086 86.6412 100.06 79.8754H86.0002C84.605 86.4263 79.0243 91.0444 72.2626 91.0444C63.9984 91.0444 57.8809 84.6007 57.8809 75.6869C57.8812 66.6652 63.7841 60.2217 72.2628 60.2217Z" fill="black"/>
<path d="M181.265 60.9772V49.164H167.312V102.217H181.265V76.6571C181.265 67.2061 188.777 61.4071 200.476 61.4071V47.4453C191.782 47.4453 185.021 52.3856 181.265 60.9772Z" fill="black"/>
<path d="M229.752 48.0862C221.487 48.0862 214.619 50.6635 209.253 55.8185C203.779 61.0809 201.096 67.6322 201.096 75.6866C201.096 83.7415 203.779 90.2924 209.253 95.4474C214.619 100.602 221.489 103.18 229.752 103.18C236.299 103.18 242.202 101.354 247.352 97.5955C252.505 93.8367 255.831 89.1112 257.334 83.3117H243.275C241.235 88.1447 235.976 91.7959 229.859 91.7959C222.562 91.7959 216.766 86.9632 215.048 79.9827H257.871C258.192 78.8012 258.301 77.4053 258.301 75.794C258.192 67.7397 255.509 61.0809 250.144 55.8185C244.778 50.6635 238.016 48.0862 229.752 48.0862ZM215.585 69.3505C217.839 63.3362 223.312 59.4701 229.859 59.4701C236.621 59.4701 242.523 63.4436 244.67 69.3505H215.585Z" fill="black"/>
<path d="M303.515 48.8376H294.034L268.903 84.2439V90.1064H295.575V102.217H303.515V90.1064H312.921V83.4726H303.515V48.8376ZM295.575 83.4726H276.921L295.652 57.7085L295.575 83.4726Z" fill="black"/>
<path d="M326.87 95.5868C326.947 94.6609 327.102 93.8127 327.41 92.9641C328.027 91.3441 330.108 89.4158 331.034 88.4901C331.496 88.0274 332.499 87.3333 333.962 86.4074C335.428 85.4818 336.353 84.8648 336.738 84.6332C337.123 84.4021 338.279 83.7077 340.054 82.7049C344.601 80.0052 346.914 78.3852 350.305 75.2226C353.619 72.0598 355.239 68.2034 355.239 63.652C355.239 59.1007 353.544 55.3981 350.228 52.4669C346.914 49.6129 342.597 48.1472 337.433 48.1472C332.191 48.1472 327.873 49.6129 324.481 52.6211C321.09 55.6297 319.239 59.7178 319.009 64.8861H326.64C327.025 58.4837 331.419 54.7811 337.278 54.7811C343.213 54.7811 347.377 58.5609 347.377 64.0377C347.377 69.9772 342.752 74.0655 334.195 79.0796C332.191 80.2364 330.648 81.1623 329.647 81.8563C328.645 82.5504 327.257 83.5531 325.484 85.0188C323.711 86.4844 322.4 87.95 321.552 89.2615C319.702 92.0382 318.006 96.5124 318.006 101.449V102.22H356.01V95.5865L326.87 95.5868Z" fill="black"/>
<path d="M180.346 135.975H172.358L170.919 139.027H167.311L174.506 123.985H178.199L185.393 139.027H181.786L180.346 135.975ZM179.015 133.181L176.352 127.53L173.689 133.181H179.015Z" fill="black"/>
<path d="M209.076 130.572V131.045C209.076 137.105 205.254 139.253 201.152 139.253C196.642 139.253 192.283 136.718 192.283 131.474C192.283 126.21 196.685 123.717 201.346 123.717C203.858 123.717 206.65 124.469 208.475 125.565L207.509 128.423C206.091 127.542 203.965 126.704 201.539 126.704C198.274 126.704 195.783 128.101 195.783 131.431C195.783 134.827 198.382 136.266 201.109 136.266C203.407 136.266 205.232 135.17 205.533 133.236H201.41V130.572L209.076 130.572Z" fill="black"/>
<path d="M226.877 132.602V135.352H224.772V139.027H221.25V135.352H210.921V132.43L220.412 123.985H224.772V132.602H226.877ZM214.764 132.602H221.25V126.821L214.764 132.602Z" fill="black"/>
<path d="M228.292 135.686C230.246 135.278 239.459 133.344 239.459 129.132C239.459 127.348 237.849 126.704 235.766 126.704C233.059 126.704 230.696 127.778 229.216 128.638L228.271 125.758C230.074 124.705 232.867 123.717 235.959 123.717C239.545 123.717 242.96 125.071 242.96 128.81C242.96 133.344 238.042 135.128 234.927 136.03H243.003V139.017H228.292V135.686Z" fill="black"/>
<path d="M250.216 133.063C250.216 129.152 253.136 126.938 256.98 126.938C258.804 126.938 260.459 127.411 262.156 128.357L261.018 130.957C259.75 130.033 258.483 129.625 257.023 129.625C255.09 129.625 253.458 130.828 253.458 133.02C253.458 135.233 255.069 136.501 257.002 136.501C258.462 136.501 259.728 136.028 261.059 135.104L262.241 137.704C260.459 138.822 258.72 139.273 256.937 139.273C253.114 139.273 250.216 136.952 250.216 133.063Z" fill="black"/>
<path d="M263.463 133.149C263.463 129.474 266.212 126.938 270.055 126.938C273.856 126.938 276.563 129.453 276.563 133.127C276.563 136.759 273.858 139.273 270.055 139.273C266.212 139.273 263.463 136.78 263.463 133.149ZM273.385 133.127C273.385 131.129 271.968 129.818 270.012 129.818C268.102 129.818 266.705 131.129 266.705 133.127C266.705 135.104 268.102 136.393 270.012 136.393C271.968 136.393 273.385 135.104 273.385 133.127Z" fill="black"/>
<path d="M296.941 131.73V139.015H293.74V132.009C293.74 130.699 293.183 129.882 291.979 129.882C290.476 129.882 289.466 131.193 289.317 133.815V139.015H286.139V132.009C286.139 130.699 285.559 129.882 284.378 129.882C282.746 129.882 281.693 131.386 281.693 134.567V139.015H278.537V127.196H281.693V130.011C282.316 128.228 283.604 126.938 285.387 126.938C287.277 126.938 288.608 127.97 289.102 129.904C289.767 128.163 291.099 126.938 292.989 126.938C295.415 126.938 296.941 128.614 296.941 131.73Z" fill="black"/>
<path d="M312.701 133.063C312.701 136.694 310.252 139.252 306.945 139.252C304.925 139.252 303.336 138.263 302.415 136.63V143.098H299.235V127.239H302.415V129.539C303.316 127.927 304.905 126.938 306.945 126.938C310.295 126.939 312.701 129.475 312.701 133.063ZM309.457 133.085C309.457 131.108 308.062 129.689 305.957 129.689C303.832 129.689 302.415 131.108 302.415 133.085C302.415 135.062 303.832 136.48 305.957 136.48C308.062 136.48 309.457 135.061 309.457 133.085Z" fill="black"/>
<path d="M326.098 131.945V139.015H322.899V136.093C321.803 138.112 320.02 139.209 317.831 139.209C316.027 139.209 314.415 138.327 314.415 136.393C314.415 133.127 319.784 131.945 322.856 131.43C322.641 130.14 321.652 129.646 320.214 129.646C318.625 129.646 316.887 130.269 315.662 131.086L314.673 128.593C316.242 127.605 318.259 126.938 320.364 126.938C323.413 126.938 326.098 128.228 326.098 131.945ZM322.899 133.17C319.612 133.836 317.808 134.46 317.808 135.62C317.808 136.351 318.539 136.63 319.182 136.63C320.837 136.63 322.705 134.911 322.899 133.17Z" fill="black"/>
<path d="M340.742 132.375V139.015H337.584V132.891C337.584 130.914 336.726 129.882 335.03 129.882C333.118 129.882 331.551 131.558 331.551 135.491V139.015H328.394V127.196H331.551V130.484C332.303 128.421 333.869 126.938 336.103 126.938C338.981 126.938 340.742 128.807 340.742 132.375Z" fill="black"/>
<path d="M356.008 127.2L350.403 139.084C348.923 142.135 347.827 143.639 345.079 143.639C344.348 143.639 343.49 143.553 342.437 143.36L342.888 140.48C343.769 140.717 344.477 140.824 345.079 140.824C346.259 140.824 346.732 140.051 347.182 139.062L347.291 138.826L341.792 127.201H345.229L348.923 135.259L352.594 127.201L356.008 127.2Z" fill="black"/>
<path d="M133.746 103.22V99.1287H119.297C123.498 101.722 128.447 103.22 133.746 103.22Z" fill="#49BEA1"/>
<path d="M133.746 48.0579C128.447 48.0579 123.498 49.5557 119.297 52.1494H133.746V48.0579Z" fill="#49BEA1"/>
<path d="M133.746 90.4559V60.823H110.495C109.669 62.1172 108.949 63.4849 108.345 64.9144H123.537C121.172 67.1691 119.553 70.1965 119.084 73.5937H106.261C106.211 74.268 106.185 74.9486 106.185 75.6356C106.185 76.3251 106.211 77.0085 106.261 77.6852H119.083C119.553 81.0823 121.172 84.1098 123.536 86.3644H108.348C108.952 87.7939 109.673 89.1614 110.499 90.4559H133.746Z" fill="#49BEA1"/>
<path d="M133.746 90.4574C141.924 90.4574 148.553 83.8237 148.553 75.641C148.553 67.4582 141.924 60.8247 133.746 60.8247V48.0579C148.968 48.0579 161.307 60.4054 161.307 75.6372C161.307 90.8688 148.968 103.216 133.746 103.216V90.4574Z" fill="black"/>
</g>
<defs>
<clipPath id="clip0_415_190">
<rect width="313" height="98" fill="white" transform="translate(43.5 46)"/>
</clipPath>
</defs>
</svg>
