<svg width="414" height="191" viewBox="0 0 414 191" fill="none" xmlns="http://www.w3.org/2000/svg">
<rect width="414" height="191" rx="20" fill="#1B1B19"/>
<path d="M78.7628 61.2217C85.5245 61.2217 90.9978 65.947 92.3931 72.4981H106.56C105.809 65.7321 102.911 60.0402 97.652 55.6371C92.3931 51.2339 86.061 49.0862 78.6557 49.0862C70.3914 49.0862 63.5228 51.6635 58.1566 56.8185C52.6829 62.0809 50 68.632 50 76.6866C50 84.7415 52.6829 91.2924 58.1564 96.4474C63.5225 101.602 70.3914 104.18 78.6553 104.18C86.0609 104.18 92.3929 102.032 97.6518 97.629C102.911 93.2255 105.809 87.6412 106.56 80.8754H92.5002C91.105 87.4263 85.5243 92.0444 78.7626 92.0444C70.4984 92.0444 64.3809 85.6007 64.3809 76.6869C64.3812 67.6652 70.2841 61.2217 78.7628 61.2217Z" fill="white"/>
<path d="M187.765 61.9772V50.164H173.812V103.217H187.765V77.6571C187.765 68.2061 195.277 62.4071 206.976 62.4071V48.4453C198.282 48.4453 191.521 53.3856 187.765 61.9772Z" fill="white"/>
<path d="M236.252 49.0862C227.987 49.0862 221.119 51.6635 215.753 56.8185C210.279 62.0809 207.596 68.6322 207.596 76.6866C207.596 84.7415 210.279 91.2924 215.753 96.4474C221.119 101.602 227.989 104.18 236.252 104.18C242.799 104.18 248.702 102.354 253.852 98.5955C259.005 94.8367 262.331 90.1112 263.834 84.3117H249.775C247.735 89.1447 242.476 92.7959 236.359 92.7959C229.062 92.7959 223.266 87.9632 221.548 80.9827H264.371C264.692 79.8012 264.801 78.4053 264.801 76.794C264.692 68.7397 262.009 62.0809 256.644 56.8185C251.278 51.6635 244.516 49.0862 236.252 49.0862ZM222.085 70.3505C224.339 64.3362 229.812 60.4701 236.359 60.4701C243.121 60.4701 249.023 64.4436 251.17 70.3505H222.085Z" fill="white"/>
<path d="M310.015 49.8376H300.534L275.403 85.2439V91.1064H302.075V103.217H310.015V91.1064H319.421V84.4726H310.015V49.8376ZM302.075 84.4726H283.421L302.152 58.7085L302.075 84.4726Z" fill="white"/>
<path d="M333.37 96.5868C333.447 95.6609 333.602 94.8127 333.91 93.9641C334.527 92.3441 336.608 90.4158 337.534 89.4901C337.996 89.0274 338.999 88.3333 340.462 87.4074C341.928 86.4818 342.853 85.8648 343.238 85.6332C343.623 85.4021 344.779 84.7077 346.554 83.7049C351.101 81.0052 353.414 79.3852 356.805 76.2226C360.119 73.0598 361.739 69.2034 361.739 64.652C361.739 60.1007 360.044 56.3981 356.728 53.4669C353.414 50.6129 349.097 49.1472 343.933 49.1472C338.691 49.1472 334.373 50.6129 330.981 53.6211C327.59 56.6297 325.739 60.7178 325.509 65.8861H333.14C333.525 59.4837 337.919 55.7811 343.778 55.7811C349.713 55.7811 353.877 59.5609 353.877 65.0377C353.877 70.9772 349.252 75.0655 340.695 80.0796C338.691 81.2364 337.148 82.1623 336.147 82.8563C335.145 83.5504 333.757 84.5531 331.984 86.0188C330.211 87.4844 328.9 88.95 328.052 90.2615C326.202 93.0382 324.506 97.5124 324.506 102.449V103.22H362.51V96.5865L333.37 96.5868Z" fill="white"/>
<path d="M186.846 136.975H178.858L177.419 140.027H173.811L181.006 124.985H184.699L191.893 140.027H188.286L186.846 136.975ZM185.515 134.181L182.852 128.53L180.189 134.181H185.515Z" fill="white"/>
<path d="M215.576 131.572V132.045C215.576 138.105 211.754 140.253 207.652 140.253C203.142 140.253 198.783 137.718 198.783 132.474C198.783 127.21 203.185 124.717 207.846 124.717C210.358 124.717 213.15 125.469 214.975 126.565L214.009 129.423C212.591 128.542 210.465 127.704 208.039 127.704C204.774 127.704 202.283 129.101 202.283 132.431C202.283 135.827 204.882 137.266 207.609 137.266C209.907 137.266 211.732 136.17 212.033 134.236H207.91V131.572L215.576 131.572Z" fill="white"/>
<path d="M233.377 133.602V136.352H231.272V140.027H227.75V136.352H217.421V133.43L226.912 124.985H231.272V133.602H233.377ZM221.264 133.602H227.75V127.821L221.264 133.602Z" fill="white"/>
<path d="M234.792 136.686C236.746 136.278 245.959 134.344 245.959 130.132C245.959 128.348 244.349 127.704 242.266 127.704C239.559 127.704 237.196 128.778 235.716 129.638L234.771 126.758C236.574 125.705 239.367 124.717 242.459 124.717C246.045 124.717 249.46 126.071 249.46 129.81C249.46 134.344 244.542 136.128 241.427 137.03H249.503V140.017H234.792V136.686Z" fill="white"/>
<path d="M256.716 134.063C256.716 130.152 259.636 127.938 263.48 127.938C265.304 127.938 266.959 128.411 268.656 129.357L267.518 131.957C266.25 131.033 264.983 130.625 263.523 130.625C261.59 130.625 259.958 131.828 259.958 134.02C259.958 136.233 261.569 137.501 263.502 137.501C264.962 137.501 266.228 137.028 267.559 136.104L268.741 138.704C266.959 139.822 265.22 140.273 263.437 140.273C259.614 140.273 256.716 137.952 256.716 134.063Z" fill="white"/>
<path d="M269.963 134.149C269.963 130.474 272.712 127.938 276.555 127.938C280.356 127.938 283.063 130.453 283.063 134.127C283.063 137.759 280.358 140.273 276.555 140.273C272.712 140.273 269.963 137.78 269.963 134.149ZM279.885 134.127C279.885 132.129 278.468 130.818 276.512 130.818C274.602 130.818 273.205 132.129 273.205 134.127C273.205 136.104 274.602 137.393 276.512 137.393C278.468 137.393 279.885 136.104 279.885 134.127Z" fill="white"/>
<path d="M303.441 132.73V140.015H300.24V133.009C300.24 131.699 299.683 130.882 298.479 130.882C296.976 130.882 295.966 132.193 295.817 134.815V140.015H292.639V133.009C292.639 131.699 292.059 130.882 290.878 130.882C289.246 130.882 288.193 132.386 288.193 135.567V140.015H285.037V128.196H288.193V131.011C288.816 129.228 290.104 127.938 291.887 127.938C293.777 127.938 295.108 128.97 295.602 130.904C296.267 129.163 297.599 127.938 299.489 127.938C301.915 127.938 303.441 129.614 303.441 132.73Z" fill="white"/>
<path d="M319.201 134.063C319.201 137.694 316.752 140.252 313.445 140.252C311.425 140.252 309.836 139.263 308.915 137.63V144.098H305.735V128.239H308.915V130.539C309.816 128.927 311.405 127.938 313.445 127.938C316.795 127.939 319.201 130.475 319.201 134.063ZM315.957 134.085C315.957 132.108 314.562 130.689 312.457 130.689C310.332 130.689 308.915 132.108 308.915 134.085C308.915 136.062 310.332 137.48 312.457 137.48C314.562 137.48 315.957 136.061 315.957 134.085Z" fill="white"/>
<path d="M332.598 132.945V140.015H329.399V137.093C328.303 139.112 326.52 140.209 324.331 140.209C322.527 140.209 320.915 139.327 320.915 137.393C320.915 134.127 326.284 132.945 329.356 132.43C329.141 131.14 328.152 130.646 326.714 130.646C325.125 130.646 323.387 131.269 322.162 132.086L321.173 129.593C322.742 128.605 324.759 127.938 326.864 127.938C329.913 127.938 332.598 129.228 332.598 132.945ZM329.399 134.17C326.112 134.836 324.308 135.46 324.308 136.62C324.308 137.351 325.039 137.63 325.682 137.63C327.337 137.63 329.205 135.911 329.399 134.17Z" fill="white"/>
<path d="M347.242 133.375V140.015H344.084V133.891C344.084 131.914 343.226 130.882 341.53 130.882C339.618 130.882 338.051 132.558 338.051 136.491V140.015H334.894V128.196H338.051V131.484C338.803 129.421 340.369 127.938 342.603 127.938C345.481 127.938 347.242 129.807 347.242 133.375Z" fill="white"/>
<path d="M362.508 128.2L356.903 140.084C355.423 143.135 354.327 144.639 351.579 144.639C350.848 144.639 349.99 144.553 348.937 144.36L349.388 141.48C350.269 141.717 350.977 141.824 351.579 141.824C352.759 141.824 353.232 141.051 353.682 140.062L353.791 139.826L348.292 128.201H351.729L355.423 136.259L359.094 128.201L362.508 128.2Z" fill="white"/>
<path d="M140.246 104.22V100.129H125.797C129.998 102.722 134.947 104.22 140.246 104.22Z" fill="#49BEA1"/>
<path d="M140.246 49.0579C134.947 49.0579 129.998 50.5557 125.797 53.1494H140.246V49.0579Z" fill="#49BEA1"/>
<path d="M140.246 91.4559V61.823H116.995C116.169 63.1172 115.449 64.4849 114.845 65.9144H130.037C127.672 68.1691 126.053 71.1965 125.584 74.5937H112.761C112.711 75.268 112.685 75.9486 112.685 76.6356C112.685 77.3251 112.711 78.0085 112.761 78.6852H125.583C126.053 82.0823 127.672 85.1098 130.036 87.3644H114.848C115.452 88.7939 116.173 90.1614 116.999 91.4559H140.246Z" fill="#49BEA1"/>
<path d="M140.246 91.4574C148.424 91.4574 155.053 84.8237 155.053 76.641C155.053 68.4582 148.424 61.8247 140.246 61.8247V49.0579C155.468 49.0579 167.807 61.4054 167.807 76.6372C167.807 91.8688 155.468 104.216 140.246 104.216V91.4574Z" fill="white"/>
</svg>
