<svg width="33" height="33" viewBox="0 0 33 33" fill="none" xmlns="http://www.w3.org/2000/svg">
<rect x="0.101562" y="0.708496" width="32.1008" height="32.1008" rx="16.0504" fill="#070707"/>
<g clip-path="url(#clip0_214_190)">
<path d="M16.1547 12.9421C14.0102 12.9421 12.2804 14.6449 12.2804 16.756C12.2804 18.867 14.0102 20.5698 16.1547 20.5698C18.2993 20.5698 20.0291 18.867 20.0291 16.756C20.0291 14.6449 18.2993 12.9421 16.1547 12.9421ZM16.1547 19.2354C14.7689 19.2354 13.6359 18.1235 13.6359 16.756C13.6359 15.3884 14.7655 14.2765 16.1547 14.2765C17.544 14.2765 18.6736 15.3884 18.6736 16.756C18.6736 18.1235 17.5406 19.2354 16.1547 19.2354ZM21.0912 12.7861C21.0912 13.2807 20.6866 13.6757 20.1876 13.6757C19.6851 13.6757 19.2839 13.2774 19.2839 12.7861C19.2839 12.2949 19.6885 11.8966 20.1876 11.8966C20.6866 11.8966 21.0912 12.2949 21.0912 12.7861ZM23.6573 13.689C23.5999 12.4974 23.3235 11.4418 22.4366 10.5722C21.5532 9.70256 20.4809 9.43038 19.2704 9.37064C18.0228 9.30093 14.2833 9.30093 13.0357 9.37064C11.8285 9.42706 10.7563 9.69924 9.86945 10.5689C8.98263 11.4385 8.70951 12.494 8.64881 13.6857C8.578 14.9138 8.578 18.5948 8.64881 19.8229C8.70613 21.0145 8.98263 22.0701 9.86945 22.9397C10.7563 23.8094 11.8252 24.0815 13.0357 24.1413C14.2833 24.211 18.0228 24.211 19.2704 24.1413C20.4809 24.0848 21.5532 23.8127 22.4366 22.9397C23.3201 22.0701 23.5966 21.0145 23.6573 19.8229C23.7281 18.5948 23.7281 14.9171 23.6573 13.689ZM22.0455 21.1407C21.7825 21.7913 21.2733 22.2925 20.609 22.5547C19.6143 22.943 17.254 22.8534 16.1547 22.8534C15.0555 22.8534 12.6918 22.9397 11.7004 22.5547C11.0395 22.2958 10.5303 21.7946 10.264 21.1407C9.86945 20.1615 9.96049 17.838 9.96049 16.756C9.96049 15.6739 9.87282 13.3471 10.264 12.3712C10.527 11.7207 11.0361 11.2195 11.7004 10.9572C12.6951 10.5689 15.0555 10.6585 16.1547 10.6585C17.254 10.6585 19.6177 10.5722 20.609 10.9572C21.2699 11.2161 21.7791 11.7173 22.0455 12.3712C22.44 13.3504 22.349 15.6739 22.349 16.756C22.349 17.838 22.44 20.1648 22.0455 21.1407Z" fill="white"/>
</g>
<defs>
<clipPath id="clip0_214_190">
<rect width="15.1063" height="16.9945" fill="white" transform="translate(8.59766 8.26172)"/>
</clipPath>
</defs>
</svg>
