<svg width="33" height="33" viewBox="0 0 33 33" fill="none" xmlns="http://www.w3.org/2000/svg">
<rect y="0.708496" width="32.1008" height="32.1008" rx="16.0504" fill="#070707"/>
<path d="M8.02539 10.7244C8.02539 10.0898 8.55668 9.57471 9.21162 9.57471H22.8896C23.5447 9.57471 24.0758 10.0898 24.0758 10.7244V24.4756C24.0758 25.1104 23.5447 25.6251 22.8896 25.6251H9.21162C8.55675 25.6251 8.02539 25.1104 8.02539 24.4757V10.7243V10.7244Z" fill="white"/>
<path d="M13.1292 22.95V15.7303H10.8354V22.95H13.1294H13.1292ZM11.9828 14.7447C12.7825 14.7447 13.2804 14.1904 13.2804 13.4975C13.2654 12.7889 12.7825 12.25 11.998 12.25C11.2129 12.25 10.7002 12.7889 10.7002 13.4975C10.7002 14.1903 11.1979 14.7447 11.9677 14.7447H11.9826L11.9828 14.7447ZM14.3988 22.95H16.6925V18.9186C16.6925 18.7031 16.7074 18.4871 16.768 18.3332C16.9338 17.9019 17.3112 17.4554 17.945 17.4554C18.7748 17.4554 19.1069 18.1174 19.1069 19.0881V22.95H21.4005V18.8105C21.4005 16.593 20.269 15.561 18.7599 15.561C17.5227 15.561 16.9793 16.2845 16.6774 16.7773H16.6926V15.7306H14.399C14.4289 16.4079 14.3988 22.9503 14.3988 22.9503L14.3988 22.95Z" fill="#070707"/>
</svg>
