<svg width="33" height="33" viewBox="0 0 33 33" fill="none" xmlns="http://www.w3.org/2000/svg">
<rect x="0.402344" y="0.708496" width="32.1008" height="32.1008" rx="16.0504" fill="#070707"/>
<path d="M16.8085 21.5988L13.5156 21.5408C12.4494 21.5206 11.3806 21.561 10.3353 21.3514C8.74523 21.0384 8.63259 19.5033 8.51471 18.2157C8.35229 16.4055 8.41517 14.5625 8.72168 12.7674C8.89471 11.7602 9.57566 11.1591 10.6287 11.0937C14.1836 10.8564 17.7621 10.8845 21.3091 10.9952C21.6837 11.0054 22.0609 11.0609 22.4303 11.124C24.2537 11.4321 24.2981 13.1716 24.4163 14.6359C24.5342 16.1154 24.4844 17.6025 24.2591 19.0719C24.0784 20.2885 23.7325 21.3087 22.2731 21.4072C20.4445 21.536 18.6579 21.6397 16.8242 21.6067C16.8243 21.5988 16.8137 21.5988 16.8085 21.5988ZM14.8726 18.5187C16.2506 17.7562 17.6023 17.0064 18.9724 16.249C17.5918 15.4865 16.2427 14.7367 14.8726 13.9793V18.5187Z" fill="white"/>
</svg>
